# xmcd CD database file
#
# Track frame offsets:
#	150
#	25950
#	49137
#	65972
#	93757
#	118622
#	133185
#	165665
#	193380
#	214257
#	245310
#	260582
#
# Disc length: 3988 seconds
#
# Revision: 0
# Processed by: cddbd v1.5.2PL0 Copyright (c) Steve Scherf et al.
# Submitted via: CDex 1.51
#
DISCID=b70f920c
DTITLE=Kaye, Joel and His Neophonic Jazz Orchestra - Live at Vartan Jazz
DYEAR=1998
DGENRE=Jazz
TTITLE0=tico tico
TTITLE1=teach me tonight
TTITLE2=encantado
TTITLE3=whose blues
TTITLE4=the shadow of your smile
TTITLE5=long ago and far away
TTITLE6=noferette
TTITLE7=moonglow
TTITLE8=frenesi
TTITLE9=wagonsville
TTITLE10=don't worry 'bout me
TTITLE11=take the 'a' train
EXTD=YEAR: 1998
EXTT0=
EXTT1=
EXTT2=
EXTT3=
EXTT4=
EXTT5=
EXTT6=
EXTT7=
EXTT8=
EXTT9=
EXTT10=
EXTT11=
PLAYORDER=
